<?xml version="1.0" standalone="no"?>
<!DOCTYPE svg PUBLIC "-//W3C//DTD SVG 20010904//EN"
 "http://www.w3.org/TR/2001/REC-SVG-20010904/DTD/svg10.dtd">
<svg version="1.0" xmlns="http://www.w3.org/2000/svg"
 width="700.000000pt" height="700.000000pt" viewBox="0 0 700.000000 700.000000"
 preserveAspectRatio="xMidYMid meet">
<metadata>
Created by potrace 1.14, written by Peter Selinger 2001-2017
</metadata>
<g transform="translate(0.000000,700.000000) scale(0.100000,-0.100000)"
fill="#000000" stroke="none">
<path d="M3278 6995 c-1 -1 -41 -5 -88 -9 -47 -4 -101 -9 -120 -12 -139 -19
-252 -40 -360 -66 -69 -16 -133 -31 -143 -33 -91 -19 -436 -148 -557 -208 -55
-27 -69 -39 -87 -77 -17 -35 -20 -53 -14 -80 7 -34 6 -36 -48 -67 l-55 -31
-24 24 c-27 27 -79 40 -119 30 -35 -9 -90 -65 -99 -101 -4 -16 -3 -45 3 -65 9
-36 8 -37 -38 -69 l-48 -33 -29 22 c-36 26 -87 33 -127 15 -32 -13 -195 -157
-306 -267 -274 -276 -500 -594 -670 -945 -32 -68 -59 -125 -59 -128 0 -3 -9
-24 -20 -48 -48 -103 -146 -398 -165 -495 -2 -13 -7 -32 -10 -42 -3 -10 -8
-29 -10 -42 -3 -13 -11 -57 -20 -98 -29 -146 -35 -192 -52 -370 -15 -163 -8
-591 12 -711 2 -13 6 -46 9 -74 9 -78 22 -152 51 -285 21 -96 91 -339 114
-395 5 -11 25 -65 46 -120 64 -170 213 -461 314 -615 214 -324 467 -601 775
-848 89 -72 367 -262 382 -262 4 0 15 -6 23 -14 26 -22 260 -140 391 -196 268
-115 597 -207 879 -246 25 -3 57 -8 71 -10 163 -25 682 -25 841 1 13 2 47 7
74 10 71 10 87 13 115 18 14 3 43 8 65 12 22 4 76 16 120 27 44 10 87 21 96
23 25 5 157 45 219 65 182 58 583 241 657 299 14 12 32 21 39 21 8 0 14 5 14
10 0 6 5 10 10 10 15 0 220 141 330 227 152 118 324 280 450 422 36 41 70 79
76 85 6 6 48 61 94 121 150 197 277 405 383 628 26 53 47 99 47 102 0 2 11 28
24 57 57 127 151 421 182 573 17 81 54 301 59 350 4 33 9 71 11 85 9 47 11
525 4 605 -15 157 -21 210 -25 225 -2 8 -7 35 -10 60 -17 129 -80 384 -136
552 -180 535 -476 1003 -889 1404 -164 159 -239 219 -510 411 -45 32 -203 125
-305 178 -308 163 -748 309 -1055 350 -19 3 -46 7 -60 10 -13 2 -52 7 -86 11
-33 3 -74 8 -90 10 -32 5 -540 14 -546 9z"/>
</g>
</svg>
