<?xml version="1.0" encoding="UTF-8"?><svg id="a" xmlns="http://www.w3.org/2000/svg" width="471" height="124" viewBox="0 0 471 124"><g><path d="M71.51,95.45c.55,1.04-.22,1.84-1.21,1.84h-23.45c-1.1,0-2.08-.81-2.52-1.84l-11.4-25.1h-1.31v25.33c0,.81-.77,1.61-1.75,1.61H10.59c-.88,0-1.64-.81-1.64-1.61V19.57c0-.92,.77-1.73,1.64-1.73h28.93c16.87,0,28.05,10.36,28.05,26.02,0,9.1-5.26,18.31-13.48,21.99l17.42,29.59ZM38.09,50.77c3.73,0,6.25-2.42,6.25-6.1s-2.52-6.1-6.25-6.1h-6.46v12.21h6.46Z" fill="#fff"/><path d="M128.6,90.84c.22,.81,0,1.27-.77,1.73-5.81,4.03-14.24,6.45-22.68,6.45-19.39,0-32.32-13.36-32.32-33.28s12.71-33.39,31.78-33.39,28.93,12.32,28.93,33.28c0,1.73-.11,3.45-.44,5.18-.11,.92-.66,1.38-1.64,1.38h-35.17s0,7.25,9.2,7.25c5.59,0,11.83-1.38,16.76-3.8,.77-.35,1.42,.12,1.64,.92l4.71,14.28Zm-16.87-30.74c0-5.07-2.96-8.41-7.34-8.41-4.93,0-8.22,3.34-8.22,8.41h15.56Z" fill="#fff"/><path d="M191.83,90.61c.33,.58,0,1.38-.66,1.96-5.92,3.92-14.03,6.56-20.27,6.56-19.83,0-32.98-13.36-32.98-33.39s13.15-33.39,32.98-33.39c6.25,0,14.35,2.65,20.27,6.56,.66,.58,.99,1.38,.66,1.96l-6.36,14.05c-.44,.92-1.21,1.27-1.97,.69-2.74-2.07-6.9-3.45-10.52-3.45-8,0-13.26,5.41-13.26,13.59s5.26,13.59,13.26,13.59c3.62,0,7.78-1.38,10.52-3.46,.77-.58,1.53-.23,1.97,.69l6.36,14.05Z" fill="#fff"/><path d="M206.29,98.9c-5.81,0-9.64-3.8-9.64-9.44s3.84-9.67,9.64-9.67,9.64,3.92,9.64,9.67-3.83,9.44-9.64,9.44Z" fill="#fff"/><path d="M307.43,17.84c.88,0,1.53,.81,1.53,1.73V95.68c0,.81-.66,1.61-1.53,1.61h-20.27c-.88,0-1.64-.81-1.64-1.61V61.83l-11.07,33.74c-.33,.92-1.75,1.73-2.74,1.73h-12.05c-.99,0-2.41-.81-2.74-1.73l-11.07-33.74v33.85c0,.81-.77,1.61-1.64,1.61h-20.27c-.88,0-1.53-.81-1.53-1.61V19.57c0-.92,.66-1.73,1.53-1.73h22.9c1.42,0,3.07,1.04,3.73,2.3l15.12,43.98,15.12-43.98c.66-1.27,2.3-2.3,3.73-2.3h22.9Z" fill="#fff"/><path d="M370.88,90.84c.22,.81,0,1.27-.77,1.73-5.81,4.03-14.24,6.45-22.68,6.45-19.39,0-32.32-13.36-32.32-33.28s12.71-33.39,31.78-33.39,28.93,12.32,28.93,33.28c0,1.73-.11,3.45-.44,5.18-.11,.92-.66,1.38-1.64,1.38h-35.17s0,7.25,9.2,7.25c5.59,0,11.83-1.38,16.76-3.8,.77-.35,1.42,.12,1.64,.92l4.71,14.28Zm-16.87-30.74c0-5.07-2.96-8.41-7.34-8.41-4.93,0-8.22,3.34-8.22,8.41h15.56Z" fill="#fff"/></g><path d="M464.06,52.9L393.83,12.35c-2.94-1.7-6.62,.42-6.62,3.82V97.27c0,3.4,3.68,5.52,6.62,3.82l70.23-40.55c2.94-1.7,2.94-5.94,0-7.64Z" fill="#fff"/><line x1="4.82" y1="8" x2="377.55" y2="8" fill="none" stroke="#fff" stroke-linecap="round" stroke-miterlimit="10" stroke-width="5"/><line x1="4.82" y1="106.51" x2="377.55" y2="106.51" fill="none" stroke="#fff" stroke-linecap="round" stroke-miterlimit="10" stroke-width="5"/></svg>