<?xml version="1.0" encoding="UTF-8"?><svg id="a" xmlns="http://www.w3.org/2000/svg" width="507.4" height="507.4" viewBox="0 0 507.4 507.4"><circle cx="253.77" cy="253.74" r="244.24" fill="#f3c"/><path d="M147.61,33.68c32.08-15.5,68.07-24.18,106.09-24.18,134.87,0,244.2,109.33,244.2,244.2s-109.33,244.2-244.2,244.2S9.5,388.57,9.5,253.7c0-76.53,35.2-144.83,90.29-189.6" fill="none" stroke="#000" stroke-linecap="round" stroke-miterlimit="10" stroke-width="19"/><path d="M132.88,48.16c.12,5.2-4.38,9.92-9.62,10.1-5.18,.18-9.97-4.26-10.23-9.5-.26-5.36,4.46-10.32,9.87-10.36,5.2-.03,9.86,4.52,9.98,9.75Z" fill="#020202"/><path d="M349.73,253.36c.2,52.81-42.8,96.1-95.63,96.29-52.82,.19-96.09-42.78-96.29-95.62-.2-52.81,42.79-96.1,95.62-96.29,52.82-.19,96.09,42.78,96.29,95.62Zm-95.95,19.08c22.82,0,45.65-.14,68.47,.13,4.32,.05,5.7-1.32,6.3-5.32,1.44-9.66,1.56-19.2-.44-28.81-.54-2.61-1.38-3.55-4.12-3.55-46.81,.08-93.62,.08-140.43,0-2.75,0-3.57,.96-4.11,3.55-2,9.6-1.88,19.15-.43,28.81,.6,4.01,2,5.36,6.31,5.31,22.82-.27,45.64-.13,68.47-.13Zm-65.25-57.72h130.35c-14.82-22.84-35.11-35.58-61.64-36.69-29.31-1.23-51.84,11.6-68.71,36.69Zm.1,78c16.19,24.43,38.16,37.26,66.74,36.71,27.29-.53,48.27-13.28,63.46-36.71H188.62Z" fill="#020202"/><path d="M29.89,247.57c2.52-59.83,24.32-111.28,67.03-153.49,34.61-34.21,76.27-54.6,124.3-61.96,10.02-1.54,20.16-2.38,30.34-2.32,7.15,.05,11.99,3.92,12.13,9.78,.14,5.86-4.6,10.11-11.73,10.19-32,.38-62.27,7.82-90.71,22.44-28.61,14.7-52.54,34.95-71.57,60.96-20.65,28.23-33.54,59.54-38,94.28-1,7.77-1.68,15.54-1.8,23.38-.12,8.03-4.02,12.89-10.16,12.8-6.16-.1-9.9-5.08-9.83-13.06,0-1,0-2,0-3Z" fill="#020202"/><path d="M61.86,247.2c2.29-45.26,17.87-86.02,48.65-120.76,23.4-26.41,52.01-44.87,85.51-55.66,18.29-5.89,37.16-8.9,56.42-8.98,6.42-.03,11.05,4.07,11.27,9.61,.23,5.68-4.35,10.17-11.07,10.34-27.35,.66-53.38,6.6-77.69,19.34-32.35,16.95-57.01,41.66-73.91,74.04-12.62,24.18-18.51,50.05-19.19,77.22-.17,6.81-4.46,11.37-10.15,11.27-5.71-.1-9.75-4.85-9.83-11.57-.02-1.33,0-2.66,0-4.86Z" fill="#020202"/><path d="M445.67,260.51c-2.29,44.97-17.87,85.74-48.65,120.46-23.41,26.41-52.02,44.86-85.52,55.64-18.13,5.84-36.83,8.82-55.92,8.98-6.79,.06-11.53-3.94-11.74-9.65-.22-5.84,4.47-10.14,11.6-10.34,21.47-.6,42.31-4.31,62.24-12.45,33.8-13.81,60.7-36.05,80.6-66.68,14.47-22.27,22.94-46.75,26.21-73.04,.72-5.77,.85-11.61,1.13-17.43,.36-7.62,4.27-12.36,10.25-12.24,6.01,.13,9.83,5.04,9.79,12.6,0,1,0,2,0,4.14Z" fill="#020202"/><path d="M93.86,249.5c1.67-42.28,17.09-78.86,46.93-108.71,30.39-30.39,67.63-45.82,110.68-46.96,7.12-.19,12.02,3.75,12.23,9.63,.2,5.84-4.48,10.1-11.63,10.32-41.24,1.31-75.95,16.93-103.36,47.84-21.89,24.68-33.07,53.88-34.73,86.77-.08,1.66-.05,3.33-.19,4.99-.5,6.05-4.8,10.36-10.17,10.24-5.39-.12-9.57-4.66-9.77-10.63-.04-1.16,0-2.33,0-3.5Z" fill="#020202"/><path d="M413.64,256.81c-1.65,43.29-17.03,79.68-46.6,109.53-24.84,25.07-55.04,40.35-90.2,45.45-6.61,.96-13.23,1.45-19.88,1.74-7.91,.35-12.98-3.52-13.11-9.7-.13-5.99,4.6-10.01,12.24-10.23,31.82-.94,60.47-10.87,85.2-30.97,27.86-22.63,44.87-51.77,50.55-87.36,1.03-6.43,1.56-12.88,1.82-19.37,.3-7.57,4.38-12.34,10.36-12.12,6.03,.22,9.79,5.2,9.62,12.74-.01,.5,0,1,0,.3Z" fill="#020202"/><path d="M261.39,477.58c-2.33,0-3.83,0-5.33,0-7.17,.02-12.02-3.81-12.22-9.68-.2-5.85,4.54-10.14,11.64-10.29,10.5-.22,20.91-1.14,31.29-2.82,37.03-6,69.77-21.27,98.5-45.3,14.4-12.05,26.7-25.99,37.31-41.45,2.81-4.09,6.28-7.1,11.63-5.9,7.54,1.7,10.03,9.59,5.24,16.67-7.67,11.33-16.24,21.95-25.89,31.67-37.48,37.81-82.82,59.5-135.57,65.84-5.77,.69-11.61,.89-16.6,1.26Z" fill="#020202"/><path d="M125.85,249.79c1.93-59.42,44.77-109.95,103.31-121.61,7.34-1.46,14.8-2.26,22.31-2.37,7.11-.11,12.02,3.75,12.23,9.63,.21,5.84-4.47,10.06-11.61,10.34-35.87,1.41-64.72,16.3-85.99,45.27-12.65,17.22-19.03,36.78-20.14,58.08-.09,1.66-.03,3.34-.22,4.99-.66,5.66-5.15,9.76-10.33,9.51-5.21-.25-9.27-4.64-9.54-10.34-.06-1.16,0-2.33,0-3.5Z" fill="#020202"/><path d="M258.15,381.56c-.33,0-.67,0-1,0-8.01,.22-13.03-3.37-13.31-9.52-.27-6.12,4.57-10.15,12.54-10.45,50.62-1.88,91.84-36.02,102.94-85.44,1.53-6.81,2.19-13.79,2.39-20.8,.2-7.12,4.52-11.81,10.35-11.58,5.87,.24,9.71,5.14,9.59,12.27-.96,59.91-45.02,112.36-103.69,123.26-6.53,1.21-13.19,1.69-19.79,2.51l-.04-.26Z" fill="#020202"/><path d="M477.66,260.65c-.67,16.83-3.14,33.4-7.21,49.73-1.58,6.32-6.61,10.1-11.8,9.03-6-1.25-9.42-6.59-7.73-13.44,4.24-17.18,6.57-34.56,6.87-52.26,.1-5.72,4.69-9.92,9.88-9.93,5.38-.01,9.7,4.45,9.98,10.39,.1,2.16,.02,4.32,.02,6.49Z" fill="#020202"/><path d="M460.62,336.49c.12,5.2-4.38,9.92-9.62,10.1-5.18,.18-9.97-4.26-10.23-9.5-.26-5.36,4.46-10.32,9.87-10.36,5.2-.03,9.86,4.52,9.98,9.75Z" fill="#020202"/><path d="M253.78,272.45c-22.82,0-45.65-.14-68.47,.13-4.31,.05-5.71-1.3-6.31-5.31-1.44-9.66-1.56-19.2,.43-28.81,.54-2.6,1.36-3.56,4.11-3.55,46.81,.08,93.62,.08,140.43,0,2.74,0,3.58,.94,4.12,3.55,1.99,9.6,1.88,19.15,.44,28.81-.6,4-1.98,5.37-6.3,5.32-22.82-.27-45.64-.13-68.47-.13Zm-.4-8.75c5.3,.22,9.99-4.09,10.32-9.47,.32-5.27-3.97-10.13-9.27-10.49-5.49-.37-10.4,4.14-10.58,9.7-.17,5.29,4.25,10.05,9.54,10.27Z" fill="#f33"/><path d="M188.52,214.73c16.87-25.09,39.4-37.92,68.71-36.69,26.53,1.11,46.82,13.84,61.64,36.69H188.52Z" fill="#0cc"/><path d="M188.62,292.72h130.2c-15.19,23.43-36.16,36.18-63.46,36.71-28.58,.56-50.56-12.28-66.74-36.71Z" fill="#63f"/><path d="M253.38,263.69c-5.29-.22-9.71-4.97-9.54-10.27,.18-5.56,5.09-10.07,10.58-9.7,5.3,.36,9.6,5.22,9.27,10.49-.33,5.39-5.02,9.69-10.32,9.47Z" fill="#020202"/></svg>